<svg xmlns="http://www.w3.org/2000/svg" viewBox="0 0 400 400" width="400" height="400" role="img"><title>AirPods Max</title><defs><radialGradient id="g" cx="50%" cy="42%" r="62%"><stop offset="0" stop-color="#65686D" stop-opacity=".22"/><stop offset="1" stop-color="#23272E" stop-opacity="0"/></radialGradient></defs><circle cx="200" cy="176" r="168" fill="url(#g)"/><ellipse cx="200" cy="330" rx="104" ry="15" fill="#131519" opacity=".22"/><path d="M112 196v-46a88 88 0 0 1 176 0v46" fill="none" stroke="#23272E" stroke-width="18" stroke-linecap="round"/><path d="M112 190v-40a88 88 0 0 1 176 0v40" fill="none" stroke="#65686D" stroke-width="5" stroke-linecap="round" opacity=".5"/><rect x="86" y="176" width="54" height="92" rx="24" fill="#191C21"/><rect x="91" y="181" width="44" height="82" rx="20" fill="#23272E"/><rect x="97" y="192" width="32" height="60" rx="15" fill="#12151B" opacity=".5"/><rect x="260" y="176" width="54" height="92" rx="24" fill="#191C21"/><rect x="265" y="181" width="44" height="82" rx="20" fill="#23272E"/><rect x="271" y="192" width="32" height="60" rx="15" fill="#12151B" opacity=".5"/></svg>