<svg xmlns="http://www.w3.org/2000/svg" viewBox="0 0 400 400" width="400" height="400" role="img"><title>Beats Pill</title><defs><radialGradient id="g" cx="50%" cy="42%" r="62%"><stop offset="0" stop-color="#626469" stop-opacity=".22"/><stop offset="1" stop-color="#1E2229" stop-opacity="0"/></radialGradient></defs><circle cx="200" cy="176" r="168" fill="url(#g)"/><ellipse cx="200" cy="330" rx="104" ry="15" fill="#101216" opacity=".22"/><path d="M136 130h128l-10 132a14 14 0 0 1-14 12H160a14 14 0 0 1-14-12Z" fill="#1E2229"/><ellipse cx="200" cy="130" rx="64" ry="20" fill="#626469"/><ellipse cx="200" cy="130" rx="44" ry="13" fill="#101419" opacity=".5"/><path d="M152 158v96" stroke="#101216" stroke-width="3" stroke-linecap="round" opacity=".22"/><path d="M164 158v96" stroke="#101216" stroke-width="3" stroke-linecap="round" opacity=".22"/><path d="M176 158v96" stroke="#101216" stroke-width="3" stroke-linecap="round" opacity=".22"/><path d="M188 158v96" stroke="#101216" stroke-width="3" stroke-linecap="round" opacity=".22"/><path d="M200 158v96" stroke="#101216" stroke-width="3" stroke-linecap="round" opacity=".22"/><path d="M212 158v96" stroke="#101216" stroke-width="3" stroke-linecap="round" opacity=".22"/><path d="M224 158v96" stroke="#101216" stroke-width="3" stroke-linecap="round" opacity=".22"/><path d="M236 158v96" stroke="#101216" stroke-width="3" stroke-linecap="round" opacity=".22"/><path d="M248 158v96" stroke="#101216" stroke-width="3" stroke-linecap="round" opacity=".22"/><rect x="170" y="254" width="60" height="6" rx="3" fill="#AAABAE" opacity=".35"/></svg>