<svg xmlns="http://www.w3.org/2000/svg" viewBox="0 0 400 400" width="400" height="400" role="img"><title>Lavalier Microphone (USB-C)</title><defs><radialGradient id="g" cx="50%" cy="42%" r="62%"><stop offset="0" stop-color="#626469" stop-opacity=".22"/><stop offset="1" stop-color="#1E2229" stop-opacity="0"/></radialGradient></defs><circle cx="200" cy="176" r="168" fill="url(#g)"/><ellipse cx="200" cy="330" rx="104" ry="15" fill="#101216" opacity=".22"/><rect x="176" y="68" width="48" height="116" rx="24" fill="#1E2229"/><rect x="184" y="84" width="32" height="6" rx="3" fill="#101216" opacity=".3"/><rect x="184" y="100" width="32" height="6" rx="3" fill="#101216" opacity=".3"/><rect x="184" y="116" width="32" height="6" rx="3" fill="#101216" opacity=".3"/><rect x="184" y="132" width="32" height="6" rx="3" fill="#101216" opacity=".3"/><rect x="184" y="148" width="32" height="6" rx="3" fill="#101216" opacity=".3"/><rect x="184" y="164" width="32" height="6" rx="3" fill="#101216" opacity=".3"/><path d="M152 156a48 48 0 0 0 96 0" fill="none" stroke="#626469" stroke-width="11" stroke-linecap="round"/><path d="M200 204v54" stroke="#1E2229" stroke-width="12" stroke-linecap="round"/><rect x="158" y="258" width="84" height="16" rx="8" fill="#16181E"/></svg>